<?xml version="1.0" encoding="UTF-8"?>
<svg width="84px" height="84px" viewBox="0 0 84 84" version="1.1" xmlns="http://www.w3.org/2000/svg" xmlns:xlink="http://www.w3.org/1999/xlink">
    <!-- Generator: Sketch 48.2 (47327) - http://www.bohemiancoding.com/sketch -->
    <title>icon</title>
    <desc>Created with Sketch.</desc>
    <defs>
        <linearGradient x1="3.59801404e-05%" y1="3.47582839e-05%" x2="158.68217%" y2="160.08529%" id="linearGradient-1">
            <stop stop-color="#000000" stop-opacity="0.3" offset="0%"></stop>
            <stop stop-color="#000000" stop-opacity="0" offset="100%"></stop>
        </linearGradient>
    </defs>
    <g id="Page-1" stroke="none" stroke-width="1" fill="none" fill-rule="evenodd">
        <g id="icon" transform="translate(-6.000000, -6.000000)">
            <path d="M10.9090909,89.4545455 C8.49912,89.4545455 6.54545455,87.50088 6.54545455,85.0909091 L6.54545455,10.9090909 C6.54545455,8.49912 8.49912,6.54545455 10.9090909,6.54545455 L85.0909091,6.54545455 C87.50088,6.54545455 89.4545455,8.49912 89.4545455,10.9090909 L89.4545455,85.0909091 C89.4545455,87.50088 87.50088,89.4545455 85.0909091,89.4545455 L10.9090909,89.4545455 Z" id="base-1-5-1" fill="#8A5360" fill-rule="nonzero"></path>
            <path d="M41.6050255,26.6833964 L45.8683418,30.9467127 L45.8683418,26.6833964 L50.1316582,26.6833964 L56.8583127,33.4100509 C58.0362545,30.0905673 62.2151345,26.6833964 67.1849455,26.6833964 L89.4545455,48.9529964 L89.4545455,85.0909091 C89.4545455,87.50088 87.50088,89.4545455 85.0909091,89.4545455 L56.94672,89.4545455 L36.8087782,69.3166036 L36.8087782,53.1079636 L31.2941236,47.5933091 C29.7624873,46.0616727 28.8150327,43.9489091 28.8150327,41.6050036 L28.8150327,26.6833745 L33.0783491,26.6833745 L37.3416655,30.9466909 L37.3416655,26.6833745 L41.6050255,26.6833964 Z" id="Shape" fill="url(#linearGradient-1)" fill-rule="nonzero"></path>
            <path d="M45.8683418,41.6050255 L41.6050255,41.6050255 L41.6050255,26.6833964 L37.3417091,26.6833964 L37.3417091,41.6050255 L33.0783927,41.6050255 L33.0783927,26.6833964 L28.8150764,26.6833964 L28.8150764,41.6050255 C28.8150764,46.1348073 32.3536364,49.8012655 36.8088,50.0783782 L36.8088,69.3166036 L42.1379564,69.3166036 L42.1379564,50.0783782 C46.59312,49.8012655 50.13168,46.1348073 50.13168,41.6050255 L50.13168,26.6833964 L45.8683636,26.6833964 L45.8683418,41.6050255 Z M56.5266327,35.2100291 L56.5266327,52.2633164 L61.8557891,52.2633164 L61.8557891,69.3166036 L67.1849455,69.3166036 L67.1849455,26.6833964 C61.3015636,26.6833964 56.5266545,31.4583055 56.5266545,35.2100291 L56.5266327,35.2100291 Z" id="Shape"></path>
            <path d="M45.8683418,26.6833964 L50.1316582,26.6833964 L50.1316582,41.6050255 C50.1316582,46.1348073 46.5930982,49.8012655 42.1379345,50.0783782 L42.1379345,69.3166036 L36.8087782,69.3166036 L36.8087782,50.0783782 C32.3536145,49.8012655 28.8150545,46.1348073 28.8150545,41.6050255 L28.8150545,26.6833964 L33.0783709,26.6833964 L33.0783709,41.6050255 L37.3416873,41.6050255 L37.3416873,26.6833964 L41.6050036,26.6833964 L41.6050036,41.6050255 L45.86832,41.6050255 L45.8683418,26.6833964 Z M67.1849455,26.6833964 L67.1849455,69.3166036 L61.8557891,69.3166036 L61.8557891,52.2633164 L56.5266327,52.2633164 L56.5266327,35.2100291 C56.5266327,31.4583055 61.3015418,26.6833964 67.1849455,26.6833964 Z" id="Shape" fill="#FFFFFF" fill-rule="nonzero"></path>
            <path d="M0,48 C0,21.4903418 21.4903418,0 48,0 C74.5096582,0 96,21.4903418 96,48 C96,74.5096582 74.5096582,96 48,96 C21.4903418,96 0,74.5096582 0,48 Z" id="base-1-1-1"></path>
            <rect id="Rectangle-path" x="0" y="0" width="96" height="48"></rect>
            <polygon id="Shape" points="0 48 0 0 96 0 96 48"></polygon>
            <polygon id="Shape" points="0 48 0 0 96 0 96 48"></polygon>
            <polygon id="Shape" points="0 48 0 0 96 0 96 48"></polygon>
            <polygon id="Shape" points="0 48 0 0 96 0 96 48"></polygon>
        </g>
    </g>
</svg>